<?xml version="1.0" encoding="utf-8"?>
<!-- Generator: Adobe Illustrator 18.0.0, SVG Export Plug-In . SVG Version: 6.00 Build 0)  -->
<!DOCTYPE svg PUBLIC "-//W3C//DTD SVG 1.1//EN" "http://www.w3.org/Graphics/SVG/1.1/DTD/svg11.dtd">
<svg version="1.1" id="Layer_1" xmlns="http://www.w3.org/2000/svg" xmlns:xlink="http://www.w3.org/1999/xlink" x="0px" y="0px"
	 viewBox="0 0 200 200" enable-background="new 0 0 200 200" xml:space="preserve">
<g>
	<path fill="#FFFFFF" d="M83.6,82.7c-0.5,0.7,2.7,6.9,3.1,7.8c1.5,3.2,3.3,6.2,5.3,9.1c2.3,3.3,4.9,6.4,7.7,9.2
		c1.4,1.4,2.9,2.7,4.5,4c1.8,1.5,3.7,2.2,4.5-1c0.9-3.7,1.1-7.4,1.5-11.1c0.4-4.2,1.1-8.3-0.3-12.3c-1.2-3.2-3.6-5.8-6.3-7.7
		c-0.9-0.6-13.1-7.3-13.1-7.3C90.5,73.3,83.6,82.7,83.6,82.7z"/>
	<path fill="#FFFFFF" d="M40.5,60.4c-0.5,0.7-7.5,0-8.4,0c-3.5-0.2-7-0.8-10.4-1.6c-3.9-0.9-7.7-2.2-11.4-3.8
		c-1.8-0.8-3.6-1.7-5.4-2.7c-2-1.1-3.4-2.7-0.8-4.5c3.1-2.2,6.4-3.8,9.8-5.5c3.8-1.9,7.3-4.1,11.6-4.3c3.4-0.1,6.7,1.2,9.5,3
		c0.9,0.6,11.6,9.5,11.6,9.5L40.5,60.4z"/>
	<path fill="#FFFFFF" d="M176.3,150.1c0.1,0.8,0.1,1.7,0.1,2.5c0,1.4-0.1,2.8-0.2,4.1c0,0.4-0.1,0.8-0.1,1.2
		c-0.3,2.4-0.7,4.8-1.4,7.2c-0.7,2.4-1.6,4.6-2.9,6.8c-0.9,1.5-2,2.9-3.1,4.4c-0.7,1-1.3,2.2-2.6,2.5c-2,0.5-2.4-1-3.2-2.4
		c-0.9-1.7-1.8-3.4-2.8-5c-1.9-2.9-4.8-5.4-8.2-6.3c-5-1.3-10.2,0.8-14.9,2.4c-11.5,3.9-22.1,8.7-34.4,9.6
		c-13.4,1-27.1-1.3-39.4-6.6c-21.2-9.2-35.7-27.3-43.2-48.8c-7-19.9-6.9-41.9,2.5-61c2.9-5.9,6.5-11.4,10.8-16.3
		c14.7-17,36.6-27.3,59-29.2c8.2-0.7,16.7-0.4,24.7,1.5c4.1,0.9,8.1,2.3,11.9,4.1c3.2,1.6,8.1,4,10.2,7c0.8,1.2,1,3.2,0.9,4.6
		c-0.6,13.5-11.3,24.2-22,32.5c-8.7,6.7-18.2,13.1-23.4,22.8c-2.4,4.5-3.7,9.5-4.4,14.6c-1,6.9-1.1,14,0.9,20.6
		c4.1,14,18,23.8,32.2,25.1c13,1.2,23.7-6,34.1-12.5C168,129,180.1,124,192.4,124c8.7,0,2.6,7.7-1.1,12.4c-1.4,1.7-2.9,3.3-4.5,4.8
		c-1.7,1.5-3.5,2.7-5.4,3.8c-0.9,0.5-1.9,0.9-2.9,1.3c-0.5,0.2-1,0.3-1.5,0.5c-0.5,0.1-1,0.2-1.5,0.4c0.1,0,0.7,2.5,0.8,2.7
		C176.3,149.9,176.3,150,176.3,150.1z"/>
	<path fill="#FFFFFF" d="M126.7,142.6"/>
	<path fill="#FFFFFF" d="M129.9,98.8"/>
</g>
</svg>
